<?xml version="1.0" encoding="UTF-8"?>
<!DOCTYPE svg PUBLIC "-//W3C//DTD SVG 1.1//EN" "http://www.w3.org/Graphics/SVG/1.1/DTD/svg11.dtd">
<!-- Creator: CorelDRAW X6 -->
<svg xmlns="http://www.w3.org/2000/svg" xml:space="preserve" width="12.6944in" height="7.45833in" version="1.1" style="shape-rendering:geometricPrecision; text-rendering:geometricPrecision; image-rendering:optimizeQuality; fill-rule:evenodd; clip-rule:evenodd"
viewBox="0 0 12694 7458"
 xmlns:xlink="http://www.w3.org/1999/xlink">
 <defs>
  <style type="text/css">
   <![CDATA[
    .fil0 {fill:#363435;fill-rule:nonzero}
    .fil1 {fill:#FEFEFE;fill-rule:nonzero}
   ]]>
  </style>
 </defs>
 <g id="Layer_x0020_1">
  <metadata id="CorelCorpID_0Corel-Layer"/>
  <path class="fil0" d="M11440 3551l383 -3269c18,-157 -104,-294 -262,-294l-822 0 -1 0c-12,0 -23,2 -34,6l-80 30 -80 -30c-11,-4 -23,-6 -34,-6l-1 0 -3129 0 -1 0c-13,0 -26,3 -37,8l-70 29 -86 -30c-10,-4 -21,-6 -32,-6l-1 0 -1768 0c-67,0 -132,19 -187,56l-115 75c-62,-34 -130,-60 -202,-77 -98,-23 -290,-54 -820,-54l-576 0c-75,0 -148,27 -206,76l-103 87c-69,-40 -146,-72 -232,-96 -103,-29 -302,-67 -851,-67l-582 0c-180,0 -331,135 -352,313l-391 3340c-170,89 -305,209 -402,359 -103,159 -170,382 -205,680 -25,215 -17,393 24,546 33,122 81,228 142,317 3,5 0,11 -6,11l-121 0c-68,0 -125,51 -133,118l-47 404c-33,280 -29,499 13,670 37,154 140,373 417,539 192,115 427,173 699,173 241,0 463,-47 661,-140 106,-50 198,-108 277,-175 12,-10 29,-9 40,2 83,83 180,150 293,200 166,75 357,113 566,113 216,0 415,-39 593,-116 142,-61 267,-145 373,-249 10,-10 27,-9 36,1 60,69 131,129 213,180 194,121 441,183 734,183 242,0 476,-58 670,-157 1,-1 14,-10 15,-11l32 -33c2,-1 4,-1 5,1l31 46c38,55 101,89 168,89l2513 0c15,0 30,-3 44,-10l81 -40 71 38c15,8 31,12 47,12l881 0c223,0 411,-167 437,-389l247 -2109 74 0 160 1015 -116 992c-31,262 174,491 437,491l547 0c224,0 413,-168 439,-391l118 -1008 847 -2107c65,-161 -54,-336 -227,-336l-1016 0z"/>
  <path class="fil1" d="M2227 868l-241 2022c112,0 184,-23 215,-69 31,-46 59,-172 84,-377l142 -1194c17,-139 23,-228 19,-268 -4,-39 -20,-68 -49,-86 -29,-18 -85,-28 -171,-28zm-716 -526l582 0c376,0 628,18 756,53 128,35 222,94 282,175 59,81 92,171 97,270 5,99 -9,295 -44,586l-128 1076c-33,276 -67,460 -104,553 -36,93 -89,166 -158,218 -69,53 -151,89 -246,110 -95,21 -235,31 -422,31l-982 0 366 -3073z"/>
  <path class="fil1" d="M4225 868l-81 683c88,0 150,-12 188,-37 38,-25 65,-105 81,-240l20 -169c12,-97 2,-161 -28,-192 -30,-30 -90,-46 -180,-46zm-716 -526l551 0c367,0 614,15 741,44 127,29 224,103 291,223 68,120 86,310 55,572 -28,239 -77,400 -144,482 -68,82 -188,132 -360,148 149,39 247,92 292,158 45,66 71,126 77,181 6,55 -5,207 -35,455l-96 811 -723 0 122 -1021c20,-164 19,-266 -2,-306 -21,-39 -85,-59 -192,-59l-165 1386 -778 0 366 -3073z"/>
  <polygon class="fil1" points="6191,342 5825,3415 5047,3415 5413,342 "/>
  <path class="fil1" d="M8246 342l-762 3073 -1182 0 -84 -3073 821 0c-5,847 -23,1563 -51,2149 111,-592 216,-1118 316,-1577l122 -571 821 0z"/>
  <polygon class="fil1" points="8283,342 9581,342 9508,957 8989,957 8919,1539 9406,1539 9336,2124 8850,2124 8769,2800 9341,2800 9267,3415 7918,3415 "/>
  <polygon class="fil1" points="11459,342 11093,3415 10411,3415 10172,2018 10006,3415 9355,3415 9721,342 10372,342 10643,1725 10808,342 "/>
  <path class="fil1" d="M2211 4779l-723 0 27 -228c13,-106 11,-174 -4,-203 -15,-29 -44,-44 -87,-44 -47,0 -85,20 -113,59 -29,39 -48,99 -57,179 -12,103 -8,180 13,232 20,52 85,115 198,188 321,211 519,384 593,520 74,135 93,354 57,655 -26,219 -70,380 -133,484 -62,104 -169,191 -320,261 -151,70 -322,105 -512,105 -208,0 -381,-41 -519,-121 -138,-81 -222,-184 -253,-309 -31,-125 -32,-303 -5,-533l24 -201 723 0 -45 374c-14,115 -12,189 4,222 16,33 51,49 102,49 52,0 93,-21 123,-63 30,-42 50,-104 60,-186 22,-181 12,-299 -30,-355 -43,-56 -153,-149 -331,-279 -178,-132 -295,-227 -350,-287 -56,-59 -98,-142 -127,-247 -29,-105 -33,-239 -14,-402 28,-235 78,-407 149,-516 71,-109 176,-194 314,-255 138,-61 299,-92 484,-92 202,0 370,34 505,101 134,67 219,152 253,253 34,102 37,275 8,519l-14 121z"/>
  <path class="fil1" d="M3388 4638c17,-143 20,-234 10,-274 -11,-40 -40,-60 -88,-60 -41,0 -74,16 -99,48 -25,32 -48,128 -66,286l-171 1435c-21,178 -27,289 -18,330 9,42 40,63 91,63 53,0 90,-24 110,-72 21,-48 42,-163 63,-344l168 -1412zm658 1010c-37,309 -70,527 -99,656 -29,128 -88,246 -175,352 -87,106 -198,188 -331,245 -134,57 -285,85 -454,85 -160,0 -301,-27 -422,-81 -121,-54 -214,-134 -279,-242 -65,-108 -97,-225 -97,-351 0,-127 19,-348 57,-664l63 -526c37,-309 70,-527 99,-656 29,-128 88,-246 175,-352 87,-106 198,-188 331,-245 134,-57 285,-85 454,-85 160,0 301,27 422,81 121,54 214,134 279,242 65,108 97,225 97,351 0,127 -19,348 -57,664l-63 526z"/>
  <path class="fil1" d="M6059 5187l-778 0 64 -534c18,-155 22,-252 10,-291 -12,-39 -46,-58 -103,-58 -64,0 -108,23 -130,70 -23,47 -44,148 -62,304l-170 1427c-18,149 -21,247 -9,292 12,46 48,68 108,68 58,0 99,-23 122,-69 23,-46 45,-153 65,-322l46 -386 778 0 -14 120c-38,318 -87,544 -146,677 -60,133 -170,250 -332,350 -162,100 -352,150 -572,150 -228,0 -411,-42 -549,-127 -138,-85 -222,-202 -252,-352 -30,-150 -27,-376 8,-677l107 -898c26,-221 54,-388 82,-498 28,-111 85,-217 170,-320 86,-103 197,-183 334,-242 137,-59 290,-88 459,-88 229,0 413,46 551,137 138,91 223,204 253,340 31,136 29,347 -5,634l-35 292z"/>
  <polygon class="fil1" points="7126,3848 6760,6922 5982,6922 6348,3848 "/>
  <polygon class="fil1" points="7289,3848 8587,3848 8514,4463 7994,4463 7925,5046 8411,5046 8342,5631 7855,5631 7775,6307 8346,6307 8273,6922 6923,6922 "/>
  <polygon class="fil1" points="10398,3848 10325,4463 9863,4463 9570,6922 8792,6922 9084,4463 8624,4463 8697,3848 "/>
  <path class="fil1" d="M12291 3848l-801 1961 -132 1112 -721 0 132 -1112 -314 -1961 715 0c40,600 55,1004 45,1211 82,-328 202,-732 361,-1211l715 0z"/>
 </g>
</svg>
